#!OML:ASF E:/inclinewalkrobotboard/Project1/Captureday1/Session1/subject1.ASF
:FULLY-SPECIFIED
:DEGREES
63
root 0 0 0 -1.3055234597597192 -2.360985368667027 -2.2719121941764966
lowerback 9.487187034114996 0.3056257907576776 0.6351540974513332
upperback 0.060318651313044924 0.6307084951839054 1.763457637757273
thorax -5.1533569823003145 0.32826591679838235 1.3916456025843864
lowerneck -16.48354003211268 -3.0477428719399104 -1.994716972401788
upperneck 19.916213860840895 -3.8851289952693313 0.6498435066957842
head 9.068880620114639 -1.903493189175545 0.06661638327855335
rclavicle -6.530751308927608E-16 -4.954072585613993E-16
rhumerus -22.36915529777756 -19.02074179612954 -73.92680448862077
rradius 27.09106787549991
rwrist 7.10537799733275
rhand -15.161817432430485 20.443760638518782
rfingers 7.12502000000002
rthumb 10.986166835861486 -8.961714396969201
lclavicle -6.192056226114787E-16 -3.2118568827693706E-16
lhumerus -29.349363060806077 1.4509454203512462 77.66161669433592
lradius 28.859909966796966
lwrist 3.0107540698009245
lhand -23.479178313033202 23.295693689491028
lfingers 7.125020000000035
lthumb 2.9309601326144765 52.93467965188694
rfemur -4.979755953671571 -5.310342897525771 16.732383192747363
rtibia 39.16827446940678
rfoot -8.610438415041154 -7.815046323771345
rtoes 5.9025409508534
lfemur -14.321517607462994 -0.48694874419252443 -20.808457887740524
ltibia 34.3557695790433
lfoot -9.209410877743153 -0.3862877663268449
ltoes -2.0064473770369293
64
root 0 0 0 -1.4217138180660136 -2.3417563401832524 -2.265487873289154
lowerback 9.556573785288741 0.3098368784843396 0.6536749932200654
upperback 0.10366586502542852 0.6364341604711152 1.7556922331339289
thorax -5.146027020021089 0.3305444843620198 1.3731953022488046
lowerneck -16.515892284577063 -3.0532896666561777 -1.9968207594258418
upperneck 19.88601400550897 -3.891571359469421 0.6396460209328114
head 9.06190578473342 -1.9048460233241018 0.06328575495738908
rclavicle -6.586144889362089E-16 -4.928108794167691E-16
rhumerus -23.03177324395076 -18.952389209339685 -74.36512634551137
rradius 27.07401909701002
rwrist 6.7949533587597415
rhand -15.45678947451894 20.684604523834494
rfingers 7.125020000000026
rthumb 10.702756871747944 -8.755406109830554
lclavicle -6.266841019216425E-16 -3.1518685237550067E-16
lhumerus -29.479549582914174 1.4257270240067 77.85646066055554
lradius 28.82341650188689
lwrist 3.0990635021511146
lhand -23.624465824320975 23.295771052624804
lfingers 7.1250200000000365
lthumb 2.7898172380203796 52.95069079739583
rfemur -5.269715944004574 -4.945417846115419 17.086019028297827
rtibia 39.13928291144274
rfoot -8.572584675047514 -7.767850846346553
rtoes 5.828240110649471
lfemur -14.01925488382576 -0.5742418020380224 -20.740406308995986
ltibia 34.247674899489354
lfoot -9.107915711037908 -0.5337374030057056
ltoes -2.123715266011489
65
root 0 0 0 -1.3261050124082878 -2.4123459774460514 -2.3001245526606295
lowerback 9.513435822286251 0.3155072197582891 0.6514357789151886
upperback 0.0724461957488085 0.6426659057295225 1.7547257319527558
thorax -5.154931672293551 0.33395875868317204 1.3751319128851751
lowerneck -16.500561755043808 -3.038450148114262 -1.9866579604190928
upperneck 19.892475111811198 -3.8761771402765204 0.6508187716515588
head 9.061666184275259 -1.89517293936803 0.0666518955243518
rclavicle -6.610925770205385E-16 -4.909783861463109E-16
rhumerus -23.21915079202423 -18.93338967052161 -74.48841760305677
rradius 27.068287326849905
rwrist 6.711441423059547
rhand -15.540987744214886 20.753264871271632
rfingers 7.125020000000028
rthumb 10.622637511104251 -8.697233628371194
lclavicle -6.276488144673058E-16 -3.1738906035826965E-16
lhumerus -29.454102551635145 1.4322546012931552 77.80824655529176
lradius 28.829325587314237
lwrist 3.0773959424161585
lhand -23.593177659621954 23.298556472875855
lfingers 7.1250200000000365
lthumb 2.8192845195944045 52.950207612125915
rfemur -4.947566481511558 -5.327623409016439 16.7170952495795
rtibia 39.13909106777009
rfoot -8.618045665074089 -7.818203651891537
rtoes 5.89587191777845
lfemur -14.048415265647343 -0.5668858160446817 -20.746305015275713
ltibia 34.25650551236831
lfoot -9.11692832761612 -0.5193900257409645
ltoes -2.1116859296698305
66
root 0 0 0 -1.2428991920874388 -2.478298564181493 -2.3315545399559925
lowerback 9.477149431340816 0.32117582064135275 0.6502605979330727
upperback 0.045943121588452485 0.6488065967722336 1.7534521320566707
thorax -5.162957420305803 0.33732507303491743 1.3759073429253719
lowerneck -16.48818643468746 -3.024583572580702 -1.9771713791781975
upperneck 19.895906041316895 -3.861442002369712 0.6609391660898369
head 9.06082999691564 -1.8858589077289252 0.06975941260765739
rclavicle -6.619542356738034E-16 -4.873809304994163E-16
rhumerus -23.312714353285273 -18.922163669835236 -74.55974618558379
rradius 27.063629818500683
rwrist 6.6709228937529765
rhand -15.58509614490152 20.789094289011484
rfingers 7.1250200000000286
rthumb 10.5800241566483 -8.66625876283322
lclavicle -6.280866441917996E-16 -3.1945974840019493E-16
lhumerus -29.41365338242533 1.4435632525270687 77.73621386145936
lradius 28.837790824889325
lwrist 3.0416160102378313
lhand -23.546263333016963 23.302578661650283
lfingers 7.125020000000036
lthumb 2.8643088164674104 52.94890775917179
rfemur -4.618677099473885 -5.718221222756256 16.335235152121854
rtibia 39.14532322721791
rfoot -8.66247010166345 -7.869117127268401
rtoes 5.966896308891403
lfemur -14.134583320262536 -0.5416544210128027 -20.764851482314842
ltibia 34.28903104480046
lfoot -9.14394186130573 -0.4784375895803379
ltoes -2.0782393819423373
67
root 0 0 0 -1.170433432330018 -2.533183634785992 -2.358213066960988
lowerback 9.44499943346111 0.3257007870605563 0.6489248515243191
upperback 0.02258340915260959 0.6538049030489791 1.752674548254869
thorax -5.169758255726936 0.3400340482242592 1.3769816045092296
lowerneck -16.47688893641818 -3.013061696285746 -1.9692982935728423
upperneck 19.90009613638841 -3.849240087905244 0.6694676805384487
head 9.060536559462639 -1.8782618440757757 0.07235127531992691
rclavicle -6.621322403645698E-16 -4.868421325517333E-16
rhumerus -23.39849149849126 -18.91271325044658 -74.62315339063824
rradius 27.060530668927203
rwrist 6.631123124163317
rhand -15.626524056311721 20.822504702405688
rfingers 7.125020000000029
rthumb 10.540010343908937 -8.637452947945594
lclavicle -6.288185782306308E-16 -3.2130480028044423E-16
lhumerus -29.38203403892888 1.452885876788411 77.67940040041718
lradius 28.844291464974148
lwrist 3.0132796860638518
lhand -23.51068924892524 23.30603722847613
lfingers 7.125020000000036
lthumb 2.8986112270344613 52.948317529745346
rfemur -4.305239138412119 -6.089810374931417 15.973677841154
rtibia 39.14842097206975
rfoot -8.706006451542038 -7.917535670681966
rtoes 6.03326234987842
lfemur -14.198800010829167 -0.5233452192867905 -20.779190917606215
ltibia 34.31074776137049
lfoot -9.165865888356977 -0.4474852317807603
ltoes -2.0536208083209395
68
root 0 0 0 -1.1152380484906672 -2.5770794755441386 -2.379659792015328
lowerback 9.421057623966608 0.32950510912593745 0.6484585237166085
upperback 0.004996355610485281 0.6580677221658655 1.7517871375095433
thorax -5.175001144086441 0.3423219431592471 1.3772610742935067
lowerneck -16.4687363837606 -3.0039205363923225 -1.9629768911841885
upperneck 19.90258700907165 -3.839563145214635 0.6760272749975242
head 9.060093535946859 -1.872168144899915 0.07433627841586732
rclavicle -6.624517204902182E-16 -4.860915749504298E-16
rhumerus -23.474671000446925 -18.90424571414453 -74.67956841326654
rradius 27.0576371924507
rwrist 6.596286541653448
rhand -15.663073167507042 20.852007953803096
rfingers 7.12502000000003
rthumb 10.50471348067837 -8.612011860671705
lclavicle -6.297712730831775E-16 -3.2270746094844405E-16
lhumerus -29.3609430010481 1.4600188975192365 77.63917524479362
lradius 28.848044474720048
lwrist 2.9925968936468816
lhand -23.486643671142666 23.309021700684422
lfingers 7.125020000000035
lthumb 2.9216926216944437 52.94858822363497
rfemur -4.0417904585877835 -6.401589477561743 15.67018853270477
rtibia 39.15033003865289
rfoot -8.742564636713913 -7.958250603530539
rtoes 6.0887769028160506
lfemur -14.244698564757634 -0.5102482810359312 -20.789325188657028
ltibia 34.32643277353372
lfoot -9.18138163952278 -0.42546642299961945
ltoes -2.0360134225275406
69
root 0 0 0 -1.2551138245578457 -2.531551976812004 -2.3602023799336562
lowerback 9.49883543650473 0.3308261198455559 0.6654720733688984
upperback 0.0552606505557236 0.6605217050060291 1.7453757564376136
thorax -5.164928052572132 0.34291704790591465 1.3603911099979094
lowerneck -16.503058614884456 -3.0148738317007773 -1.9689587261995198
upperneck 19.873988341764658 -3.851639843809117 0.6625123856706185
head 9.054182699230292 -1.8773930235245797 0.07002165607480904
rclavicle -6.652729613912517E-16 -4.850679590857597E-16
rhumerus -23.86608282178176 -18.863615345420303 -74.93995969778067
rradius 27.047525725487485
rwrist 6.411719556689167
rhand -15.837558147867881 20.994346359014386
rfingers 7.125020000000034
rthumb 10.336781953102552 -8.48985547842086
lclavicle -6.378108015446857E-16 -3.1593216694599363E-16
lhumerus -29.520759966203336 1.4296011656194372 77.88178706843834
lradius 28.803397898533476
lwrist 3.102348070334532
lhand -23.666431100917507 23.30751162309139
lfingers 7.125020000000037
lthumb 2.7473970813318225 52.96707400220871
rfemur -4.39720913960609 -5.958462093695871 16.10065315181582
rtibia 39.11727610456551
rfoot -8.69639345986395 -7.901218975974322
rtoes 5.999701188992574
lfemur -13.950294134820211 -0.5952039622987417 -20.72320898677969
ltibia 34.22101442762604
lfoot -9.08360136077207 -0.5687970116457599
ltoes -2.1500485894664365
70
root 0 0 0 -1.1732726326810976 -2.586129536342817 -2.386877610361698
lowerback 9.46042276857403 0.33469777404884193 0.6622503153995543
upperback 0.028075228918170936 0.6647252174515873 1.745303207427141
thorax -5.172190786981483 0.3452914199584729 1.3634359152220417
lowerneck -16.488712143393244 -3.003344581480575 -1.9611677583158413
upperneck 19.8816295112244 -3.839690095758464 0.6717132021060581
head 9.054656468112183 -1.8701208292542089 0.07280134241088476
rclavicle -6.660251142379018E-16 -4.843013927032941E-16
rhumerus -23.894432843391293 -18.86101969178603 -74.95858354660555
rradius 27.045922659671817
rwrist 6.401981778391324
rhand -15.85104145884798 21.005204222521712
rfingers 7.125020000000034
rthumb 10.324456552660145 -8.48104257441373
lclavicle -6.387627997260163E-16 -3.1787725768803905E-16
lhumerus -29.507561670632505 1.4339289635069106 77.8542149627651
lradius 28.8060106729318
lwrist 3.09001156717159
lhand -23.649654876016275 23.30933535493004
lfingers 7.125020000000037
lthumb 2.7629763927841964 52.967362705595484
rfemur -4.115978897654244 -6.292375927561878 15.779187357318236
rtibia 39.11552231654305
rfoot -8.736592746617275 -7.945450604326222
rtoes 6.05850263990266
lfemur -13.988162555793302 -0.5852399286134311 -20.73120438616023
ltibia 34.23304899607028
lfoot -9.096063754091068 -0.5500340697346218
ltoes -2.134576678347603
